<?xml version="1.0" encoding="utf-8"?>
<!-- Generator: Adobe Illustrator 26.3.1, SVG Export Plug-In . SVG Version: 6.00 Build 0)  -->
<svg version="1.1" id="Warstwa_1" xmlns="http://www.w3.org/2000/svg" xmlns:xlink="http://www.w3.org/1999/xlink" x="0px" y="0px"
	 viewBox="0 0 430 430" style="enable-background:new 0 0 430 430;" xml:space="preserve">
<style type="text/css">
	.Styl_x0020_grafiki_x0020_9{opacity:0.5;fill:#ffc738;}
	.st0{fill:#646E78;}
	.st1{opacity:0.5;fill:#646E78;}
	.st2{fill:#121331;}
	.st3{fill:#3A3347;}
	.st4{fill:#4BB3FD;}
	.st5{opacity:0.5;fill:#4BB3FD;}
	.st6{opacity:0.5;fill:#3A3347;}
	.st7{fill:none;stroke:#121331;stroke-width:7;stroke-linecap:round;stroke-linejoin:round;stroke-miterlimit:10;}
	.st8{opacity:0.5;}
	.st9{fill:#EBE6EF;}
	.st10{opacity:0.5;fill:#EBE6EF;}
	.st11{fill:#F9C9C0;}
	.st12{fill:#2CA58D;}
	.st13{opacity:0.5;fill:#2CA58D;}
	.st14{opacity:0.5;fill:#F9C9C0;}
	.st15{fill:#ffffff;}
	.st16{opacity:0.5;fill:#ffffff;}
	.st17{fill:#B26836;}
	.st18{opacity:0.5;fill:#B26836;}
	.st19{fill:#FFFFFF;}
	.st20{fill:#F7F8F9;}
	.st21{fill:#FBFAFC;}
	.st22{fill:#ffc738;}
	.st23{fill:#FCFCFC;}
	.st24{fill:#92140C;}
	.st25{fill:#F28BA8;}
	.st26{opacity:0.5;fill:#F28BA8;}
	.st27{opacity:0.25;fill:#F9C9C0;}
	.st28{opacity:0.5;fill:#92140C;}
	.st29{opacity:0.1;fill:#3A3347;}
	.st30{fill:none;stroke:#08A88A;stroke-width:12;stroke-linecap:round;stroke-linejoin:round;stroke-miterlimit:10;}
	.st31{fill:none;stroke:#121331;stroke-width:12;stroke-linecap:round;stroke-linejoin:round;stroke-miterlimit:10;}
	.st32{fill:none;stroke:#646E78;stroke-width:7;stroke-linecap:round;stroke-linejoin:round;stroke-miterlimit:10;}
	.st33{fill:#08A88A;}
	.st34{fill:none;stroke:#EBE6EF;stroke-width:7;stroke-linecap:round;stroke-linejoin:round;stroke-miterlimit:10;}
	.st35{fill:#08A789;}
	.st36{fill:none;stroke:#F28BA8;stroke-width:7;stroke-linecap:round;stroke-linejoin:round;stroke-miterlimit:10;}
	.st37{fill:none;stroke:#ffc738;stroke-width:7;stroke-linecap:round;stroke-linejoin:round;stroke-miterlimit:10;}
	.st38{opacity:0.5;fill:#ffc738;}
	.st39{fill:none;stroke:#3A3347;stroke-width:7;stroke-linecap:round;stroke-linejoin:round;stroke-miterlimit:10;}
</style>
<path class="st15" d="M346.78,227.44c-13.43,8.91-33.69,12.81-52.4,14.38c14.23,12.25,28.31,27.33,33.95,42.42
	c4.16,11.17-3.68,23.14-15.58,23.84c-5.25,0.3-10.5-0.41-15.41-1.62c-10.58-2.62-21,4.95-21.77,15.81
	c-0.36,5.03-1.31,10.26-3.22,15.16c-4.35,11.09-18.14,14.85-27.48,7.45c-12.63-10.02-22.61-28.09-29.87-45.42
	c-7.26,17.33-17.24,35.4-29.87,45.42c-9.33,7.4-23.13,3.65-27.48-7.45c-1.91-4.9-2.85-10.13-3.22-15.16
	c-0.77-10.87-11.19-18.43-21.77-15.81c-4.9,1.21-10.16,1.92-15.41,1.62c-11.9-0.7-19.74-12.67-15.58-23.84
	c5.63-15.1,19.72-30.17,33.95-42.42c-18.71-1.57-38.97-5.47-52.4-14.38c-9.94-6.59-10.63-20.88-1.42-28.43
	c4.07-3.34,8.74-5.86,13.42-7.75c10.11-4.11,14.08-16.35,8.32-25.6c-2.66-4.28-4.97-9.07-6.3-14.15
	c-3.01-11.53,5.94-22.68,17.85-22.18c16.1,0.69,34.78,9.43,50.85,19.17c-4.3-18.28-6.85-38.75-2.52-54.28
	c3.2-11.49,16.57-16.57,26.61-10.13c4.42,2.83,8.26,6.5,11.51,10.36c7.02,8.34,19.89,8.34,26.91,0c3.25-3.86,7.09-7.53,11.51-10.36
	c10.04-6.44,23.41-1.36,26.61,10.13c4.32,15.53,1.78,36-2.52,54.28c16.06-9.74,34.74-18.49,50.85-19.17
	c11.91-0.5,20.87,10.64,17.85,22.18c-1.33,5.09-3.64,9.87-6.3,14.15c-5.76,9.25-1.79,21.49,8.32,25.6
	c4.68,1.89,9.36,4.41,13.42,7.75C357.41,206.56,356.71,220.86,346.78,227.44z"/>
<circle class="st22" cx="215" cy="216.03" r="42.95"/>
<path class="st16" d="M178.04,331.84c-1.91-4.9-2.85-10.13-3.22-15.16c-0.77-10.87-11.19-18.43-21.77-15.81
	c-4.9,1.21-10.16,1.92-15.41,1.62c-11.9-0.7-19.74-12.67-15.58-23.84c5.63-15.1,19.72-30.17,33.95-42.42
	c-18.71-1.57-38.97-5.47-52.4-14.38c-9.94-6.59-10.63-20.88-1.42-28.43c4.07-3.34,8.74-5.86,13.42-7.75
	c10.11-4.11,14.08-16.35,8.31-25.6c-2.66-4.28-4.97-9.07-6.3-14.15c-1.55-5.93,0.07-11.76,3.63-15.96
	c-2.09-0.32-4.15-0.54-6.16-0.62c-11.91-0.5-20.87,10.64-17.85,22.18c1.33,5.09,3.64,9.87,6.3,14.15c5.76,9.25,1.79,21.49-8.32,25.6
	c-4.68,1.89-9.36,4.41-13.42,7.75c-9.22,7.55-8.52,21.84,1.42,28.43c13.43,8.91,33.69,12.81,52.4,14.38
	c-14.23,12.25-28.31,27.33-33.95,42.42c-4.16,11.17,3.68,23.14,15.58,23.84c5.25,0.3,10.5-0.41,15.41-1.62
	c10.58-2.62,21,4.95,21.77,15.81c0.36,5.03,1.31,10.26,3.22,15.16c4.35,11.09,18.14,14.85,27.48,7.45c1.12-0.89,2.21-1.86,3.29-2.87
	C183.88,340.35,180,336.85,178.04,331.84z"/>
<path class="Styl_x0020_grafiki_x0020_9" d="M222.11,251.26c-22.56-7.33-34.9-31.56-27.57-54.12c3.45-10.61,10.64-18.96,19.64-24.07
	c-17.79,0.34-34.21,11.79-40.02,29.67c-7.33,22.56,5.02,46.79,27.57,54.12c11.95,3.88,24.36,2.24,34.48-3.5
	C231.55,253.44,226.8,252.78,222.11,251.26z"/>
<path class="st2" d="M255.79,352.23c-4.7,0-9.28-1.58-13.09-4.6c-9.95-7.9-19.25-21.15-27.7-39.46
	c-8.44,18.31-17.74,31.56-27.69,39.46c-5.32,4.22-12.12,5.63-18.67,3.86c-6.57-1.77-11.76-6.43-14.24-12.77
	c-1.86-4.77-3.02-10.21-3.45-16.18c-0.29-4.15-2.4-7.93-5.77-10.38c-3.38-2.45-7.63-3.29-11.67-2.29
	c-5.79,1.43-11.32,2.01-16.45,1.72c-6.81-0.4-12.84-3.9-16.56-9.6c-3.71-5.68-4.47-12.59-2.1-18.96
	c4.45-11.91,14.17-24.85,28.96-38.52c-20.02-2.38-35.49-7.13-46.07-14.14c-5.66-3.75-9.11-9.8-9.45-16.58
	c-0.34-6.79,2.48-13.16,7.75-17.48c3.98-3.27,8.8-6.05,14.33-8.29c3.85-1.57,6.8-4.74,8.09-8.71c1.29-3.96,0.76-8.26-1.44-11.79
	c-3.16-5.09-5.42-10.17-6.71-15.12c-1.72-6.59-0.26-13.41,4.01-18.7c4.26-5.28,10.59-8.14,17.38-7.86c12.69,0.54,28,5.8,45.59,15.64
	c-3.92-19.77-4.19-35.95-0.78-48.19c1.82-6.55,6.5-11.69,12.84-14.11c6.35-2.42,13.29-1.71,19.03,1.97
	c4.31,2.76,8.45,6.48,12.3,11.06c2.68,3.18,6.61,5.01,10.78,5.01c4.17,0,8.1-1.83,10.78-5.01c3.85-4.57,7.99-8.29,12.3-11.06
	c5.74-3.68,12.68-4.4,19.03-1.97c6.34,2.42,11.02,7.56,12.84,14.11c3.41,12.23,3.14,28.42-0.78,48.19
	c17.59-9.84,32.9-15.1,45.59-15.64c6.78-0.29,13.12,2.58,17.38,7.86c4.27,5.29,5.73,12.11,4.01,18.7
	c-1.29,4.95-3.55,10.03-6.71,15.11c-2.2,3.53-2.72,7.83-1.44,11.8c1.29,3.97,4.24,7.14,8.1,8.71c5.52,2.23,10.34,5.02,14.32,8.28
	c5.27,4.32,8.09,10.69,7.75,17.48c-0.34,6.78-3.79,12.82-9.45,16.57c0,0,0,0,0,0c-10.58,7.01-26.05,11.76-46.07,14.14
	c14.78,13.67,24.51,26.6,28.96,38.52c2.37,6.37,1.61,13.28-2.1,18.96c-3.72,5.7-9.75,9.2-16.55,9.6c-5.13,0.3-10.66-0.28-16.45-1.72
	c-4.04-1-8.3-0.17-11.67,2.29c-3.37,2.45-5.47,6.23-5.77,10.38c-0.43,5.98-1.59,11.42-3.45,16.18c-2.49,6.35-7.68,11-14.24,12.78
	C259.51,351.99,257.64,352.23,255.79,352.23z M215,295.97c1.41,0,2.68,0.85,3.23,2.15c8.82,21.04,18.52,35.85,28.82,44.03
	c3.56,2.82,8.11,3.77,12.5,2.58c4.4-1.19,7.88-4.31,9.55-8.56c1.6-4.11,2.6-8.86,2.99-14.14c0.44-6.2,3.59-11.87,8.63-15.54
	c5.05-3.67,11.42-4.92,17.47-3.42c5.11,1.26,9.94,1.78,14.37,1.52c4.56-0.27,8.6-2.61,11.09-6.43c2.48-3.81,2.99-8.43,1.4-12.69
	c-4.6-12.33-15.69-26.13-32.95-40.99c-1.07-0.92-1.48-2.39-1.05-3.73s1.63-2.29,3.04-2.41c22.73-1.9,39.81-6.55,50.76-13.81
	c3.79-2.51,6.1-6.56,6.33-11.09c0.23-4.55-1.66-8.82-5.2-11.71c-3.43-2.82-7.64-5.24-12.51-7.21c-5.78-2.35-10.2-7.1-12.13-13.04
	c-1.93-5.93-1.14-12.37,2.15-17.66c2.79-4.48,4.77-8.92,5.88-13.19c1.16-4.42,0.18-8.99-2.68-12.54c-2.85-3.53-7.09-5.45-11.64-5.26
	c-13.13,0.56-29.68,6.84-49.18,18.67c-1.21,0.73-2.73,0.67-3.87-0.16s-1.67-2.26-1.35-3.63c5.22-22.2,6.08-39.87,2.56-52.54
	c-1.22-4.39-4.35-7.83-8.59-9.45c-4.26-1.62-8.91-1.14-12.76,1.33c-3.72,2.39-7.33,5.64-10.72,9.67c-4.01,4.77-9.89,7.5-16.13,7.5
	c-6.24,0-12.12-2.73-16.13-7.5c-3.39-4.03-7-7.29-10.72-9.67c-3.85-2.47-8.5-2.95-12.76-1.33c-4.24,1.62-7.37,5.06-8.59,9.45
	c-3.53,12.67-2.67,30.34,2.56,52.54c0.32,1.37-0.21,2.8-1.35,3.63c-1.14,0.83-2.67,0.89-3.87,0.16
	c-19.5-11.83-36.05-18.11-49.18-18.67c-4.55-0.2-8.79,1.72-11.64,5.26c-2.86,3.55-3.84,8.12-2.68,12.54
	c1.12,4.26,3.1,8.7,5.88,13.19c3.29,5.28,4.08,11.72,2.15,17.65c-1.93,5.94-6.34,10.69-12.12,13.04c-4.88,1.97-9.09,4.39-12.52,7.21
	c-3.53,2.9-5.43,7.17-5.2,11.71c0.23,4.54,2.54,8.58,6.33,11.09c10.95,7.26,28.03,11.9,50.76,13.81c1.4,0.12,2.6,1.07,3.04,2.41
	s0.02,2.81-1.05,3.73c-17.26,14.87-28.35,28.66-32.95,41c-1.59,4.26-1.08,8.88,1.41,12.69c2.49,3.82,6.54,6.16,11.1,6.43
	c4.42,0.25,9.25-0.26,14.36-1.52c6.05-1.5,12.42-0.25,17.47,3.42c5.05,3.67,8.19,9.33,8.63,15.54c0.38,5.27,1.39,10.03,2.99,14.14
	c1.66,4.25,5.14,7.37,9.54,8.56c4.38,1.18,8.94,0.24,12.5-2.58c10.3-8.18,20-22.99,28.82-44.03
	C212.32,296.82,213.59,295.97,215,295.97z M346.78,227.44h0.01H346.78z"/>
<path class="st2" d="M193.73,182.21c-0.94,0-1.89-0.38-2.58-1.13l-27.78-30.21c-1.31-1.42-1.22-3.64,0.21-4.95
	c1.42-1.31,3.64-1.22,4.95,0.21l27.78,30.21c1.31,1.42,1.22,3.64-0.21,4.95C195.43,181.91,194.58,182.21,193.73,182.21z"/>
<path class="st2" d="M236.28,182.21c-0.85,0-1.7-0.31-2.37-0.92c-1.42-1.31-1.51-3.52-0.21-4.95l27.78-30.21
	c1.31-1.42,3.52-1.51,4.95-0.21c1.42,1.31,1.51,3.52,0.21,4.95l-27.78,30.21C238.17,181.83,237.23,182.21,236.28,182.21z"/>
<path class="st2" d="M215,302.97c-1.93,0-3.5-1.57-3.5-3.5v-40.48c0-1.93,1.57-3.5,3.5-3.5s3.5,1.57,3.5,3.5v40.48
	C218.5,301.4,216.93,302.97,215,302.97z"/>
<path class="st2" d="M135.62,245.32c-1.67,0-3.16-1.21-3.45-2.91c-0.32-1.91,0.96-3.71,2.86-4.04l40.79-6.95
	c1.91-0.33,3.71,0.96,4.04,2.86c0.32,1.91-0.96,3.71-2.86,4.04l-40.79,6.95C136.01,245.3,135.82,245.32,135.62,245.32z"/>
<path class="st2" d="M215,176.57c-1.93,0-3.5-1.57-3.5-3.5v-31.84c0-1.93,1.57-3.5,3.5-3.5s3.5,1.57,3.5,3.5v31.84
	C218.5,175,216.93,176.57,215,176.57z"/>
<path class="st2" d="M174.14,206.25c-0.36,0-0.72-0.06-1.08-0.17l-30.28-9.84c-1.84-0.6-2.84-2.57-2.25-4.41
	c0.6-1.84,2.57-2.84,4.41-2.25l30.28,9.84c1.84,0.6,2.84,2.57,2.25,4.41C176.99,205.31,175.62,206.25,174.14,206.25z"/>
<path class="st2" d="M171.03,280.04c-0.71,0-1.43-0.22-2.05-0.67c-1.56-1.14-1.91-3.33-0.77-4.89l18.72-25.76
	c1.14-1.56,3.32-1.91,4.89-0.77c1.56,1.14,1.91,3.33,0.77,4.89l-18.72,25.76C173.18,279.54,172.11,280.04,171.03,280.04z"/>
<path class="st2" d="M258.97,280.04c-1.08,0-2.15-0.5-2.83-1.44l-18.72-25.76c-1.14-1.56-0.79-3.75,0.77-4.89
	c1.56-1.14,3.75-0.79,4.89,0.77l18.72,25.76c1.14,1.56,0.79,3.75-0.77,4.89C260.4,279.82,259.68,280.04,258.97,280.04z"/>
<path class="st2" d="M255.86,206.25c-1.48,0-2.85-0.94-3.33-2.42c-0.6-1.84,0.41-3.81,2.25-4.41l30.28-9.84
	c1.84-0.6,3.81,0.41,4.41,2.25c0.6,1.84-0.41,3.81-2.25,4.41l-30.28,9.84C256.58,206.2,256.22,206.25,255.86,206.25z"/>
<path class="st2" d="M294.38,245.32c-0.2,0-0.4-0.02-0.6-0.05l-40.72-7.08c-1.9-0.33-3.18-2.14-2.85-4.05
	c0.33-1.9,2.14-3.18,4.05-2.85l40.72,7.08c1.9,0.33,3.18,2.14,2.85,4.05C297.53,244.12,296.05,245.32,294.38,245.32z"/>
<path class="st2" d="M215.05,262.5c-4.83,0-9.68-0.76-14.4-2.3c-24.36-7.92-37.74-34.17-29.82-58.53
	c7.91-24.36,34.17-37.73,58.53-29.82c24.36,7.92,37.74,34.17,29.82,58.53c-3.83,11.8-12.03,21.4-23.09,27.03
	C229.46,260.79,222.28,262.5,215.05,262.5z M215.03,176.57c-16.63,0-32.14,10.61-37.55,27.26c-6.72,20.69,4.64,42.99,25.33,49.71
	l0,0c10.02,3.26,20.71,2.42,30.1-2.37c9.39-4.78,16.35-12.94,19.61-22.96c6.72-20.69-4.64-42.99-25.33-49.71
	C223.16,177.2,219.06,176.57,215.03,176.57z"/>
<path class="st2" d="M223.23,203.42c-1.58,0-3.13-0.64-4.25-1.76c-0.27-0.28-0.52-0.58-0.74-0.91s-0.4-0.68-0.55-1.04
	c-0.15-0.36-0.27-0.74-0.35-1.12c-0.07-0.39-0.11-0.78-0.11-1.17s0.04-0.79,0.11-1.17c0.08-0.39,0.2-0.77,0.35-1.13
	c0.14-0.36,0.33-0.71,0.55-1.03c0.21-0.33,0.47-0.64,0.74-0.91c0.28-0.28,0.59-0.53,0.91-0.75c0.33-0.22,0.68-0.4,1.04-0.55
	c0.36-0.15,0.74-0.27,1.12-0.35c0.78-0.15,1.57-0.15,2.35,0c0.38,0.08,0.76,0.2,1.12,0.35c0.36,0.15,0.71,0.33,1.04,0.55
	c0.32,0.22,0.63,0.47,0.91,0.75c0.28,0.27,0.53,0.58,0.74,0.91c0.22,0.32,0.41,0.67,0.56,1.03c0.15,0.36,0.26,0.74,0.34,1.13
	c0.07,0.38,0.11,0.78,0.11,1.17s-0.04,0.78-0.11,1.17c-0.08,0.38-0.19,0.76-0.34,1.12c-0.15,0.36-0.34,0.71-0.56,1.04
	c-0.21,0.33-0.47,0.63-0.74,0.91C226.35,202.78,224.8,203.42,223.23,203.42z"/>
<path class="st2" d="M235.38,224.22c-1.58,0-3.12-0.64-4.24-1.76c-1.11-1.11-1.75-2.66-1.75-4.24s0.64-3.13,1.75-4.24
	c1.4-1.4,3.47-2.04,5.42-1.65c0.38,0.08,0.76,0.2,1.12,0.35c0.36,0.15,0.71,0.33,1.04,0.55c0.32,0.22,0.63,0.47,0.91,0.75
	c1.11,1.11,1.75,2.66,1.75,4.24s-0.64,3.12-1.75,4.24c-0.28,0.28-0.59,0.53-0.91,0.75c-0.33,0.21-0.68,0.4-1.04,0.55
	c-0.36,0.15-0.74,0.26-1.12,0.34C236.17,224.18,235.78,224.22,235.38,224.22z"/>
<path class="st2" d="M211.78,224.22c-0.39,0-0.78-0.04-1.17-0.11c-0.38-0.08-0.76-0.2-1.12-0.35c-0.37-0.15-0.71-0.33-1.04-0.55
	s-0.63-0.47-0.91-0.74c-0.28-0.28-0.53-0.59-0.75-0.92c-0.21-0.32-0.4-0.67-0.55-1.03c-0.15-0.36-0.26-0.74-0.34-1.13
	c-0.08-0.38-0.12-0.78-0.12-1.17c0-1.58,0.64-3.12,1.76-4.24c1.39-1.39,3.46-2.03,5.41-1.64c0.39,0.08,0.76,0.19,1.13,0.34
	c0.36,0.15,0.71,0.34,1.03,0.55c0.33,0.22,0.64,0.47,0.91,0.75c0.28,0.28,0.53,0.58,0.75,0.91s0.4,0.68,0.55,1.04
	c0.15,0.36,0.27,0.74,0.34,1.12c0.08,0.39,0.12,0.78,0.12,1.17c0,1.58-0.64,3.13-1.76,4.25c-0.27,0.27-0.58,0.52-0.91,0.74
	c-0.32,0.22-0.67,0.4-1.03,0.55c-0.37,0.15-0.74,0.27-1.13,0.35C212.57,224.18,212.17,224.22,211.78,224.22z"/>
</svg>
